<?xml version="1.0" encoding="UTF-8"?>
<svg id="Camada_2" data-name="Camada 2" xmlns="http://www.w3.org/2000/svg" xmlns:xlink="http://www.w3.org/1999/xlink" viewBox="0 0 50.97 48.6">
  <defs>
    <style>
      .cls-1 {
        mask: url(#mask);
      }

      .cls-2 {
        fill: url(#Gradiente_sem_nome_8);
      }

      .cls-2, .cls-3, .cls-4, .cls-5 {
        stroke-width: 0px;
      }

      .cls-6 {
        font-family: Figtree-Bold, Figtree;
        font-size: 36px;
        font-variation-settings: 'wght' 700;
        font-weight: 700;
      }

      .cls-6, .cls-3 {
        fill: #92acce;
      }

      .cls-4 {
        fill: #d9d9d9;
      }

      .cls-5 {
        fill: #fff;
      }
    </style>
    <mask id="mask" x="-5.02" y="-10.11" width="63.96" height="63.23" maskUnits="userSpaceOnUse">
      <g id="mask0_88_68" data-name="mask0 88 68">
        <rect class="cls-4" x="-20.83" y="12.78" width="49.92" height="2.08" transform="translate(-10.29 13.2) rotate(-70.91)"/>
        <rect class="cls-4" x="-16.68" y="14.18" width="49.92" height="2.08" transform="translate(-8.81 18.07) rotate(-70.91)"/>
        <rect class="cls-4" x="-12.53" y="15.58" width="49.92" height="2.08" transform="translate(-7.34 22.93) rotate(-70.91)"/>
        <rect class="cls-4" x="-8.38" y="16.98" width="49.92" height="2.08" transform="translate(-5.87 27.8) rotate(-70.91)"/>
        <rect class="cls-4" x="-4.23" y="18.38" width="49.92" height="2.08" transform="translate(-4.39 32.66) rotate(-70.91)"/>
        <rect class="cls-4" x="-.07" y="19.77" width="49.92" height="2.08" transform="translate(-2.92 37.52) rotate(-70.91)"/>
        <rect class="cls-4" x="4.08" y="21.17" width="49.92" height="2.08" transform="translate(-1.45 42.39) rotate(-70.91)"/>
        <rect class="cls-4" x="8.23" y="22.57" width="49.92" height="2.08" transform="translate(.02 47.25) rotate(-70.91)"/>
        <rect class="cls-4" x="12.38" y="23.97" width="49.92" height="2.08" transform="translate(1.5 52.12) rotate(-70.91)"/>
        <rect class="cls-4" x="16.53" y="25.37" width="49.92" height="2.08" transform="translate(2.97 56.98) rotate(-70.91)"/>
        <rect class="cls-4" x="20.68" y="26.76" width="49.92" height="2.08" transform="translate(4.44 61.85) rotate(-70.91)"/>
        <rect class="cls-4" x="24.84" y="28.16" width="49.92" height="2.08" transform="translate(5.92 66.71) rotate(-70.91)"/>
      </g>
    </mask>
    <linearGradient id="Gradiente_sem_nome_8" data-name="Gradiente sem nome 8" x1="5.93" y1="-3863.81" x2="50.97" y2="-3863.81" gradientTransform="translate(0 -3841.28) scale(1 -1)" gradientUnits="userSpaceOnUse">
      <stop offset=".33" stop-color="#92acce"/>
      <stop offset="1" stop-color="#207893"/>
    </linearGradient>
  </defs>
  <g id="Camada_1-2" data-name="Camada 1">
    <g>
      <g class="cls-1">
        <circle class="cls-2" cx="28.45" cy="22.52" r="22.52"/>
      </g>
      <g>
        <path class="cls-5" d="M22.52,48.1C10.38,48.1.5,38.22.5,26.08S10.38,4.06,22.52,4.06s22.02,9.88,22.02,22.02-9.88,22.02-22.02,22.02Z"/>
        <path class="cls-3" d="M22.52,4.56c11.87,0,21.52,9.65,21.52,21.52s-9.65,21.52-21.52,21.52S1,37.95,1,26.08,10.65,4.56,22.52,4.56M22.52,3.56C10.08,3.56,0,13.64,0,26.08s10.08,22.52,22.52,22.52,22.52-10.08,22.52-22.52S34.96,3.56,22.52,3.56h0Z"/>
      </g>
      <text class="cls-6" transform="translate(12.21 38.5)"><tspan x="0" y="0">2</tspan></text>
    </g>
  </g>
</svg>